<?xml version="1.0" encoding="UTF-8"?>
<svg version="1.1" xmlns="http://www.w3.org/2000/svg" width="290" height="84">
<path d="M0 0 C1.32 0 2.64 0 4 0 C5.13969166 1.173212 6.27572509 2.35035776 7.38671875 3.55078125 C11.60625846 7.34121523 16.81598955 10.07800037 22.5 9.875 C24.95690998 9.07430829 24.95690998 9.07430829 27 8 C33.30335431 7.52555398 37.27464398 8.60090847 42.875 11.375 C67.51846545 22.77182256 93.6512902 14.65613893 118 6 C121.13241629 4.69230578 124.24138648 3.35060639 127.33276367 1.94873047 C130.0814827 0.97101677 132.10824732 0.81195581 135 1 C133.63055898 3.94956528 132.12169591 6.52468811 130 9 C129.34 9 128.68 9 128 9 C127.67 9.99 127.34 10.98 127 12 C124.84765625 14.015625 124.84765625 14.015625 122.0625 16.25 C121.16660156 16.97703125 120.27070313 17.7040625 119.34765625 18.453125 C118.23565011 19.30715829 117.1192551 20.15548917 116 21 C115.28158936 21.55131592 114.56317871 22.10263184 113.82299805 22.6706543 C107.4803969 27.34914228 101.01202041 30.4573309 93.6875 33.3125 C92.64916016 33.74111328 91.61082031 34.16972656 90.54101562 34.61132812 C74.29279706 41.06031147 52.67547936 43.44845538 36 37 C21.87833791 30.89618661 21.87833791 30.89618661 17 25 C17.1875 21.1875 17.1875 21.1875 18 18 C12.75846462 13.81172823 7.50156254 9.92194827 1.75 6.45703125 C-0.33099477 4.7244173 -0.73506078 3.66595094 -1 1 C-0.67 0.67 -0.34 0.34 0 0 Z " fill="#D12226" transform="translate(128,2)"/>
<path d="M0 0 C3.691875 -0.061875 7.38375 -0.12375 11.1875 -0.1875 C12.3427417 -0.21481201 13.4979834 -0.24212402 14.68823242 -0.27026367 C15.60967041 -0.27775635 16.5311084 -0.28524902 17.48046875 -0.29296875 C18.41785889 -0.3086792 19.35524902 -0.32438965 20.32104492 -0.34057617 C25.26164622 0.2875236 28.88379726 3.23906565 32 7 C35.14890199 13.45524908 35.06575617 21.6152315 32.8125 28.375 C30.62598674 33.408106 27.08524554 36.9344774 22 39 C19.52636719 39.22705078 19.52636719 39.22705078 16.796875 39.1953125 C15.91354492 39.19031738 15.03021484 39.18532227 14.12011719 39.18017578 C13.00797852 39.16196777 11.89583984 39.14375977 10.75 39.125 C7.2025 39.08375 3.655 39.0425 0 39 C0 26.13 0 13.26 0 0 Z M10 8 C10 15.59 10 23.18 10 31 C18.14250135 31.69725085 18.14250135 31.69725085 21.5 29.6875 C24.35445444 26.47623875 24.16214338 23.16520188 24.1875 19.0625 C24.20876953 17.50208984 24.20876953 17.50208984 24.23046875 15.91015625 C24.0016615 13.0209799 23.58610585 11.39863726 22 9 C18.88196601 7.25464401 18.88196601 7.25464401 10 8 Z " fill="#220C0D" transform="translate(127,43)"/>
<path d="M0 0 C-1.36944102 2.94956528 -2.87830409 5.52468811 -5 8 C-5.66 8 -6.32 8 -7 8 C-7.33 8.99 -7.66 9.98 -8 11 C-12.08388251 14.98664721 -15.2586054 16.916718 -21 18 C-21.99 17.67 -22.98 17.34 -24 17 C-24.0515625 17.77085938 -24.103125 18.54171875 -24.15625 19.3359375 C-25 22 -25 22 -27.40625 23.4765625 C-28.4271875 23.85554688 -29.448125 24.23453125 -30.5 24.625 C-31.58925781 25.0375 -32.67851562 25.45 -33.80078125 25.875 C-35.38439453 26.431875 -35.38439453 26.431875 -37 27 C-37.81855469 27.28875 -38.63710937 27.5775 -39.48046875 27.875 C-40.93270658 28.36850383 -42.38975768 28.84809991 -43.8515625 29.3125 C-45.33396813 29.7868698 -46.80777228 30.28868837 -48.2734375 30.8125 C-56.24444979 33.64180129 -63.58018516 34.17541281 -72 34 C-68.54792524 32.03470991 -65.11523774 31.2253523 -61.25 30.375 C-60.07953125 30.11460938 -58.9090625 29.85421875 -57.703125 29.5859375 C-56.81109375 29.39257812 -55.9190625 29.19921875 -55 29 C-57.8995661 27.34123921 -59.91635209 26.7638784 -63.25 26.875 C-64.4875 26.91625 -65.725 26.9575 -67 27 C-67 25.02 -67 23.04 -67 21 C-66.34 21 -65.68 21 -65 21 C-65 20.01 -65 19.02 -65 18 C-60.95871161 16.16794926 -57.1942029 15.49907403 -52.8125 14.875 C-44.90321631 13.60873318 -37.3367564 11.47987939 -29.6875 9.125 C-28.07935425 8.63362549 -28.07935425 8.63362549 -26.4387207 8.13232422 C-19.9906449 6.10370497 -13.82481897 3.74106744 -7.66723633 0.94873047 C-4.9185173 -0.02898323 -2.89175268 -0.18804419 0 0 Z " fill="#D72C2F" transform="translate(263,3)"/>
<path d="M0 0 C4.1673042 2.37527886 5.81593181 5.03281224 7.625 9.4375 C7.375 11.875 7.375 11.875 6.625 13.4375 C1.24829486 13.87821354 1.24829486 13.87821354 -1.375 13.4375 C-2.42392238 11.80118108 -3.42406703 10.13264137 -4.375 8.4375 C-7.78028996 7.18911619 -7.78028996 7.18911619 -11.375 7.4375 C-13.78781883 9.27886174 -15.02650913 10.74051826 -16.375 13.4375 C-16.95967484 19.09214092 -17.37344636 23.83393464 -14.3125 28.75 C-11.41509491 30.71917105 -11.41509491 30.71917105 -7.75 30.5625 C-4.19553582 29.80669357 -4.19553582 29.80669357 -3 26.875 C-2.46375 26.070625 -1.9275 25.26625 -1.375 24.4375 C1.66172544 23.97953782 4.57594547 24.14985335 7.625 24.4375 C6.99428443 29.79858238 4.60455806 33.69788837 0.5625 37.25 C-4.12452294 40.12269148 -9.05712668 39.88619556 -14.375 39.4375 C-19.55979602 37.67662588 -22.23960732 34.8793063 -25.375 30.4375 C-28.37128172 24.15957641 -27.91490956 17.38246124 -26.6875 10.6875 C-24.69612313 5.75647155 -22.03957478 2.59883124 -17.6875 -0.4375 C-11.68510103 -2.47605059 -5.87100149 -2.54117975 0 0 Z " fill="#C63B36" transform="translate(28.375,43.5625)"/>
<path d="M0 0 C1.32 0 2.64 0 4 0 C5.13969166 1.173212 6.27572509 2.35035776 7.38671875 3.55078125 C11.60625846 7.34121523 16.81598955 10.07800037 22.5 9.875 C24.95690998 9.07430829 24.95690998 9.07430829 27 8 C33.45420861 7.49488802 37.71810923 8.72683387 43.5 11.5 C44.22703125 11.83386719 44.9540625 12.16773438 45.703125 12.51171875 C47.47499813 13.32771295 49.23843917 14.16197592 51 15 C50.01 15.66 49.02 16.32 48 17 C48 16.34 48 15.68 48 15 C46.29159719 16.63412443 45.06546953 17.86906094 44 20 C45.65 20 47.3 20 49 20 C49 20.66 49 21.32 49 22 C50.32 22.66 51.64 23.32 53 24 C52.01 24 51.02 24 50 24 C50 24.66 50 25.32 50 26 C49.34 26 48.68 26 48 26 C48.495 28.475 48.495 28.475 49 31 C50.32 31.33 51.64 31.66 53 32 C53 32.66 53 33.32 53 34 C29.32275214 32.60937339 29.32275214 32.60937339 21 25 C21 24.34 21 23.68 21 23 C19.02 23.99 19.02 23.99 17 25 C17.33 22.69 17.66 20.38 18 18 C12.75846462 13.81172823 7.50156254 9.92194827 1.75 6.45703125 C-0.33099477 4.7244173 -0.73506078 3.66595094 -1 1 C-0.67 0.67 -0.34 0.34 0 0 Z " fill="#D52126" transform="translate(128,2)"/>
<path d="M0 0 C2.64 0 5.28 0 8 0 C8.33 3.63 8.66 7.26 9 11 C9.99 10.34 10.98 9.68 12 9 C18.94677871 8.32773109 18.94677871 8.32773109 22.9375 10.875 C26.11852538 14.15242009 26.1211539 15.98075964 26.09765625 20.4453125 C26.09443359 21.52167969 26.09121094 22.59804687 26.08789062 23.70703125 C26.07951172 24.83496094 26.07113281 25.96289062 26.0625 27.125 C26.05798828 28.26066406 26.05347656 29.39632812 26.04882812 30.56640625 C26.03701615 33.37765638 26.02054507 36.1888023 26 39 C23.03 39 20.06 39 17 39 C16.67 32.07 16.34 25.14 16 18 C14.02 18 12.04 18 10 18 C9.11360611 20.65918166 8.82010975 22.48064641 8.68359375 25.23046875 C8.64169922 26.03291016 8.59980469 26.83535156 8.55664062 27.66210938 C8.51732422 28.49548828 8.47800781 29.32886719 8.4375 30.1875 C8.39431641 31.03248047 8.35113281 31.87746094 8.30664062 32.74804688 C8.20068482 34.83184433 8.0998498 36.91590103 8 39 C5.36 39 2.72 39 0 39 C0 26.13 0 13.26 0 0 Z " fill="#C93935" transform="translate(40,43)"/>
<path d="M0 0 C3.81151433 1.73858549 5.42797583 3.21823363 7.875 6.5625 C9.89726415 12.74164047 9.95503203 18.65221293 7.5 24.6875 C7.005 25.450625 6.51 26.21375 6 27 C5.34 27 4.68 27 4 27 C4 27.66 4 28.32 4 29 C-0.59905173 31.37370412 -4.94277204 31.562907 -10 31 C-15.18976563 29.23743809 -17.55541708 26.88916584 -20 22 C-21.40379856 16.37455906 -21.42366734 11.35226537 -19 6 C-14.12054495 -0.7653794 -7.87440052 -1.26865342 0 0 Z M-8.6875 7.9375 C-11.59848562 10.53378448 -11.89186578 12.19737477 -12.13671875 15.99609375 C-11.92973296 19.02991409 -10.98947155 20.73611858 -9 23 C-7.11149645 24.07642709 -7.11149645 24.07642709 -5 24 C-2.33393981 23.00974907 -1.28610235 22.5722047 0 20 C0.19738723 17.89044938 0.19738723 17.89044938 0.1875 15.5625 C0.20876953 14.38880859 0.20876953 14.38880859 0.23046875 13.19140625 C0.14086064 10.70794013 0.14086064 10.70794013 -2 8 C-4.72208688 6.68588909 -5.81158448 6.93427366 -8.6875 7.9375 Z " fill="#220C0D" transform="translate(183,52)"/>
<path d="M0 0 C1.010625 -0.00773437 2.02125 -0.01546875 3.0625 -0.0234375 C7.10809856 0.5253006 9.81424741 1.87327322 12.36328125 5.1015625 C14.93557916 10.24615831 15.87211479 14.64244059 15 20.375 C13.30835942 25.09378688 11.13951382 27.58082817 7 30.375 C2.93220306 31.73093231 -0.74668259 31.90575585 -5 31.375 C-9.49459848 29.04446745 -12.80924334 26.40601695 -14.6875 21.625 C-15.58103306 15.19156194 -15.21683674 10.92603091 -12.36328125 5.13671875 C-9.03692988 0.83819592 -5.23993414 -0.04010154 0 0 Z M-3.8125 8.75 C-6.56236074 12.04983288 -6.71535678 14.04678115 -6.5078125 18.24609375 C-6.11628891 20.69428664 -6.11628891 20.69428664 -3.5 22.9375 C-2.675 23.411875 -1.85 23.88625 -1 24.375 C2.65316671 23.12523244 3.78065836 22.70401247 6 19.375 C6.47557962 13.48883783 6.47557962 13.48883783 4 8.375 C0.67802982 6.93847236 -0.55008532 7.15504171 -3.8125 8.75 Z " fill="#210C0D" transform="translate(254,51.625)"/>
<path d="M0 0 C4.21654311 1.70455998 6.09617816 3.89175287 8 8 C8 9.32 8 10.64 8 12 C5.03 12 2.06 12 -1 12 C-1.33 10.68 -1.66 9.36 -2 8 C-4.97065509 8.34227572 -4.97065509 8.34227572 -8 9 C-9.26237731 11.52475462 -9.09856404 13.31200466 -9.0625 16.125 C-9.04896484 17.49011719 -9.04896484 17.49011719 -9.03515625 18.8828125 C-9.02355469 19.58148438 -9.01195312 20.28015625 -9 21 C-5.6136749 22.50930183 -5.6136749 22.50930183 -2 23 C-1.67 21.68 -1.34 20.36 -1 19 C5.75 17.875 5.75 17.875 8 19 C7.49614177 23.40875955 6.0886933 25.82550966 3 29 C-1.08460081 31.3826838 -5.38226315 31.6088294 -10 31 C-13.71194997 29.35024446 -15.85325399 27.43479361 -18 24 C-19.79525143 18.61424572 -19.85122587 12.49568442 -17.875 7.125 C-13.5461854 -0.089691 -7.86373569 -1.07830489 0 0 Z " fill="#200B0C" transform="translate(213,52)"/>
<path d="M0 0 C6.15234375 -0.09765625 6.15234375 -0.09765625 8 0 C9 1 9 1 9.0625 4.5625 C9.041875 5.696875 9.02125 6.83125 9 8 C10.32 8 11.64 8 13 8 C13 10.31 13 12.62 13 15 C11.68 15 10.36 15 9 15 C9 20.28 9 25.56 9 31 C10.32 31 11.64 31 13 31 C13 32.98 13 34.96 13 37 C11.39667209 37.08121924 9.79215974 37.13929134 8.1875 37.1875 C6.84751953 37.23970703 6.84751953 37.23970703 5.48046875 37.29296875 C3 37 3 37 1.36328125 35.75976562 C-0.36514426 33.52866049 -0.34927995 32.347571 -0.29296875 29.55078125 C-0.28330078 28.70322266 -0.27363281 27.85566406 -0.26367188 26.98242188 C-0.23853516 26.10134766 -0.21339844 25.22027344 -0.1875 24.3125 C-0.17396484 23.41982422 -0.16042969 22.52714844 -0.14648438 21.60742188 C-0.11114079 19.40433834 -0.06180493 17.20247418 0 15 C-1.32 14.67 -2.64 14.34 -4 14 C-4 12.02 -4 10.04 -4 8 C-2.68 8 -1.36 8 0 8 C0 5.36 0 2.72 0 0 Z " fill="#220B0C" transform="translate(225,45)"/>
<path d="M0 0 C0.99 0 1.98 0 3 0 C3 0.66 3 1.32 3 2 C4.98 1.34 6.96 0.68 9 0 C-2.13494085 12.67079476 -23.11998569 21.19495214 -39.6328125 22.859375 C-41.29957031 22.92898437 -41.29957031 22.92898437 -43 23 C-43.7537793 23.03416016 -44.50755859 23.06832031 -45.28417969 23.10351562 C-62.81710646 23.79640928 -78.8875122 21.34533333 -93 10 C-92.67 8.68 -92.34 7.36 -92 6 C-91.34 6 -90.68 6 -90 6 C-89.278125 6.763125 -88.55625 7.52625 -87.8125 8.3125 C-78.81550193 16.90963149 -62.61497473 18.33846708 -50.703125 18.21875 C-33.28041398 17.18956032 -15.72041708 13.81361138 -1 4 C-0.27617533 1.94074861 -0.27617533 1.94074861 0 0 Z " fill="#AA2226" transform="translate(239,19)"/>
<path d="M0 0 C-9.14586599 9.8583157 -24.08100232 13.42910184 -36.43505859 18.01660156 C-39.89036866 19.34136731 -43.29076115 20.79156423 -46.68676758 22.26123047 C-49.24046878 23.07679773 -51.33561959 23.13255624 -54 23 C-54 23.66 -54 24.32 -54 25 C-56.64 25 -59.28 25 -62 25 C-62 23.02 -62 21.04 -62 19 C-61.34 19 -60.68 19 -60 19 C-60 18.01 -60 17.02 -60 16 C-55.95871161 14.16794926 -52.1942029 13.49907403 -47.8125 12.875 C-39.85516756 11.6065176 -32.25360365 9.44200167 -24.5625 7.0625 C-23.47364502 6.72653809 -22.38479004 6.39057617 -21.26293945 6.04443359 C-15.35261694 4.17830106 -9.62138351 2.11878727 -3.94116211 -0.36547852 C-2 -1 -2 -1 0 0 Z " fill="#D44644" transform="translate(258,5)"/>
<path d="M0 0 C2.97 0 5.94 0 9 0 C9.02464849 5.39346988 9.04283531 10.78690725 9.05493164 16.18041992 C9.05997231 18.01668875 9.06680477 19.85295354 9.07543945 21.68920898 C9.08751672 24.32276401 9.09323081 26.95626616 9.09765625 29.58984375 C9.10281754 30.41588608 9.10797882 31.24192841 9.11329651 32.09300232 C9.11349205 34.06236368 9.06204152 36.03161614 9 38 C8.505 38.495 8.505 38.495 8 39 C5.36 39 2.72 39 0 39 C0 26.13 0 13.26 0 0 Z " fill="#C13633" transform="translate(99,43)"/>
<path d="M0 0 C2.97 0 5.94 0 9 0 C9.02464849 5.39346988 9.04283531 10.78690725 9.05493164 16.18041992 C9.05997231 18.01668875 9.06680477 19.85295354 9.07543945 21.68920898 C9.08751672 24.32276401 9.09323081 26.95626616 9.09765625 29.58984375 C9.10281754 30.41588608 9.10797882 31.24192841 9.11329651 32.09300232 C9.11349205 34.06236368 9.06204152 36.03161614 9 38 C8.505 38.495 8.505 38.495 8 39 C5.36 39 2.72 39 0 39 C0 26.13 0 13.26 0 0 Z " fill="#C33733" transform="translate(85,43)"/>
<path d="M0 0 C0 2.64 0 5.28 0 8 C-1.134375 8.28875 -2.26875 8.5775 -3.4375 8.875 C-4.613125 9.24625 -5.78875 9.6175 -7 10 C-8.11823815 12.23647631 -8.19396061 13.64891529 -8.31640625 16.1328125 C-8.35830078 16.93847656 -8.40019531 17.74414062 -8.44335938 18.57421875 C-8.50233398 19.83685547 -8.50233398 19.83685547 -8.5625 21.125 C-8.60568359 21.97449219 -8.64886719 22.82398437 -8.69335938 23.69921875 C-8.79954236 25.79928223 -8.90028497 27.89961948 -9 30 C-11.97 30 -14.94 30 -18 30 C-18 20.43 -18 10.86 -18 1 C-15.36 1 -12.72 1 -10 1 C-9.67 1.66 -9.34 2.32 -9 3 C-8.62875 2.505 -8.2575 2.01 -7.875 1.5 C-5.25305607 -0.59755514 -3.26157528 -0.21743835 0 0 Z " fill="#220D0E" transform="translate(290,52)"/>
<path d="M0 0 C3.0625 0.125 3.0625 0.125 5.0625 1.125 C5.0625 10.695 5.0625 20.265 5.0625 30.125 C2.0925 30.125 -0.8775 30.125 -3.9375 30.125 C-3.96215746 26.0132744 -3.98033959 21.90157722 -3.99243164 17.78979492 C-3.9974708 16.39004772 -4.00430216 14.9903058 -4.01293945 13.59057617 C-4.0250232 11.58254223 -4.03019807 9.57447043 -4.03515625 7.56640625 C-4.04039307 6.35670166 -4.04562988 5.14699707 -4.05102539 3.90063477 C-3.89452129 0.07419363 -3.84756648 0.16372623 0 0 Z " fill="#C33532" transform="translate(74.9375,51.875)"/>
<path d="M0 0 C2.64 0 5.28 0 8 0 C8.87562914 3.69415256 9.06117252 6.95119323 8.87890625 10.73828125 C8.83056641 11.80498047 8.78222656 12.87167969 8.73242188 13.97070312 C8.67634766 15.07349609 8.62027344 16.17628906 8.5625 17.3125 C8.51029297 18.43462891 8.45808594 19.55675781 8.40429688 20.71289062 C8.2749801 23.47556709 8.14002857 26.23784918 8 29 C5.36 29 2.72 29 0 29 C0 19.43 0 9.86 0 0 Z " fill="#B1423E" transform="translate(113,53)"/>
</svg>
