<svg xmlns="http://www.w3.org/2000/svg" viewBox="0 0 82.15 19.36"><style type="text/css">  
	.st0{fill:#DBB726;}
	.st1{fill:#404041;}
</style><path class="st0" d="M44.58 5.02l0.07-0.03 0.07-0.03 0.08-0.02 0.07-0.02 0.08-0.02 0.08-0.02 0.08-0.02 0.08-0.01 0.08-0.01 0.08-0.01 0.08-0.01 0.08-0.01 0.08 0 0.08 0 0.08 0 0.08 0 0.08 0 0.08 0 0.08 0.01 0.08 0.01 0.08 0.01 0.07 0.01 0.07 0.01 0.07 0.02 0.07 0.02 0.07 0.02 0.07 0.02 0.07 0.02 0.07 0.02L46.83 5l0.07 0.03 0.06 0.03 0.06 0.03 0.06 0.03 0.06 0.03 0.06 0.03L47.27 5.23l0.06 0.04 0.06 0.04 0.05 0.04 0.04 0.03c0.02 0.02 0.04 0.03 0.07 0.05 0.09 0.07 0.17 0.15 0.25 0.23 0.73 0.83 0.65 2.1-0.19 2.83 -0.83 0.73-2.1 0.65-2.83-0.18 -0.04-0.05-0.08-0.1-0.12-0.16 -0.4-0.62-0.21-1.45 0.41-1.84 0.18-0.12 0.24-0.36 0.12-0.54 -0.05-0.08-0.12-0.14-0.21-0.16 -0.5-0.04-0.99 0.15-1.33 0.53l0 0c-0.41 0.41-0.7 0.93-0.83 1.49l-0.42-0.03 0.01-0.06 0.01-0.06L42.44 7.41l0.02-0.06 0.02-0.06 0.02-0.06 0.02-0.06 0.02-0.06 0.02-0.06 0.02-0.06 0.05-0.11 0.05-0.11 0.06-0.11 0.06-0.11 0.06-0.1L42.93 6.35l0.07-0.1 0.07-0.09 0.07-0.09 0.07-0.09 0.07-0.08 0.05-0.05 0.05-0.05 0.05-0.05 0.05-0.05 0.05-0.05 0.05-0.05 0.06-0.05 0.06-0.04 0.06-0.04 0.06-0.04 0.06-0.04 0.06-0.04 0.06-0.04 0.06-0.04 0.07-0.04 0.07-0.04 0.07-0.04 0.07-0.03 0.07-0.03 0.07-0.03L44.58 5.02z"/><path class="st0" d="M51.21 18.89c0.19 0.24 0.46 0.4 0.76 0.45v0.02h-3.45c-1.72 0-3.35-0.79-4.41-2.15l-3.59-4.6 -0.23-0.06c0.04-0.03 0.07-0.06 0.11-0.1L36.59 7.55c0 0-0.01 0-0.01 0.01l-0.11-0.17 -1.28-1.64c-0.49-0.63-0.75-1.4-0.75-2.19 0-1.97 1.6-3.57 3.56-3.57h2.04v0.37h-0.03l-0.02 0h-0.02l-0.02 0 -0.03 0 -0.02 0 -0.02 0 -0.02 0 -0.03 0 -0.02 0 -0.03 0.01L39.72 0.41l-0.02 0.01 -0.03 0.01 -0.02 0.01 -0.03 0.01 -0.02 0.01 -0.03 0.01 -0.02 0.01 -0.03 0.01 -0.02 0.01 -0.03 0.01 -0.02 0.01 -0.02 0.01 -0.03 0.02 -0.02 0.02L39.34 0.6l-0.02 0.02 -0.03 0.02 -0.02 0.02L39.24 0.68l-0.02 0.02L39.19 0.72l-0.02 0.03 -0.02 0.02 -0.02 0.03 -0.02 0.03 -0.02 0.03L39.06 0.89l-0.02 0.03 -0.02 0.03 -0.02 0.03 -0.02 0.03L38.97 1.04l-0.02 0.03 -0.02 0.03 -0.01 0.03 -0.02 0.03 -0.01 0.04 -0.01 0.03 -0.01 0.04L38.85 1.32l-0.01 0.04 -0.01 0.04 -0.01 0.04 -0.01 0.04 -0.01 0.04L38.78 1.56l-0.01 0.04 -0.01 0.04 -0.01 0.04L38.75 1.73l0 0.04 0 0.05 0 0.05 0 0.05 0 0.05v0.05 0.05l0 0.05 0 0.05 0 0.05 0 0.05 0.01 0.05 0.01 0.05 0.01 0.06 0.01 0.05 0.01 0.06 0.01 0.06 0.02 0.06 0.02 0.06 0.02 0.06 0.02 0.06 0.02 0.06 0.02 0.06 0.03 0.06 0.03 0.06 0.03 0.06 0.03 0.07 0.04 0.07 0.04 0.07 0.04 0.07 0.04 0.07 0.05 0.07 0.05 0.07 0.05 0.07 0.05 0.07 1.14 1.46 0.11 0.15 1.73 2.21 0.42 0.03c-0.03 0.14-0.06 0.28-0.07 0.42L51.21 18.89z"/><polygon class="st0" points="43.45 3.03 43.44 3.09 43.44 3.15 43.42 3.21 43.41 3.27 43.39 3.32 43.38 3.38 43.36 3.44 43.34 3.5 43.31 3.56 43.29 3.62 43.27 3.67 43.24 3.73 43.21 3.79 43.18 3.85 43.15 3.9 43.11 3.96 43.08 4.01 43.04 4.07 43 4.13 42.96 4.18 42.92 4.23 42.88 4.29 42.83 4.33 42.79 4.39 42.74 4.44 42.69 4.49 42.64 4.53 42.59 4.58 42.53 4.63 42.48 4.67 42.42 4.71 42.37 4.76 42.31 4.8 42.25 4.84 42.19 4.87 42.13 4.91 42.07 4.95 42 4.98 41.94 5.02 41.88 5.05 41.81 5.08 41.75 5.11 41.68 5.13 41.61 5.16 41.55 5.19 41.48 5.21 41.41 5.23 41.35 5.25 41.28 5.27 41.21 5.29 41.14 5.3 41.07 5.32 41.01 5.33 40.94 5.34 40.87 5.35 40.8 5.36 40.74 5.37 40.67 5.38 40.56 5.23 40.59 5.22 40.62 5.2 40.65 5.18 40.68 5.17 40.71 5.15 40.73 5.13 40.76 5.1 40.79 5.08 40.82 5.06 40.85 5.04 40.88 5.01 40.91 4.99 40.93 4.96 40.96 4.93 40.99 4.9 41.02 4.87 41.04 4.84 41.07 4.81 41.09 4.78 41.12 4.74 41.14 4.71 41.17 4.68 41.19 4.64 41.22 4.6 41.24 4.56 41.26 4.53 41.28 4.49 41.3 4.45 41.32 4.41 41.34 4.37 41.38 4.29 41.42 4.2 41.45 4.11 41.48 4.02 41.51 3.93 41.54 3.84 41.56 3.75 41.58 3.66 41.6 3.56 41.62 3.47 41.63 3.38 41.64 3.28 41.65 3.19 41.65 3.1 41.66 3.01 41.66 2.92 41.66 2.83 41.65 2.72 41.65 2.6 41.64 2.49 41.62 2.37 41.61 2.26 41.59 2.14 41.56 2.03 41.53 1.91 41.51 1.86 41.5 1.8 41.48 1.74 41.46 1.69 41.44 1.63 41.42 1.58 41.4 1.52 41.37 1.47 41.35 1.42 41.32 1.37 41.3 1.31 41.27 1.26 41.24 1.21 41.22 1.17 41.19 1.12 41.16 1.07 41.12 1.03 41.09 0.99 41.06 0.94 41.03 0.9 41 0.86 40.96 0.83 40.93 0.79 40.89 0.76 40.86 0.72 40.82 0.69 40.78 0.66 40.75 0.63 40.71 0.6 40.67 0.58 40.64 0.55 40.6 0.53 40.56 0.51 40.52 0.49 40.49 0.47 40.45 0.45 40.41 0.44 40.37 0.43 40.33 0.41 40.3 0.4 40.28 0.4 40.26 0.39 40.24 0.39 40.22 0.38 40.2 0.38 40.18 0.38 40.16 0.37 40.15 0.37 40.13 0.37 40.11 0.37 40.07 0.37 40.04 0.36 40.04 0 40.35 0 40.42 0 40.49 0 40.56 0.01 40.63 0.01 40.7 0.02 40.77 0.02 40.85 0.03 40.92 0.04 40.99 0.06 41.06 0.07 41.14 0.09 41.21 0.1 41.28 0.12 41.36 0.14 41.43 0.16 41.5 0.19 41.57 0.21 41.64 0.24 41.72 0.27 41.79 0.3 41.86 0.33 41.93 0.37 41.99 0.4 42.06 0.44 42.13 0.48 42.19 0.52 42.26 0.56 42.32 0.6 42.38 0.65 42.45 0.69 42.51 0.74 42.56 0.79 42.62 0.84 42.68 0.89 42.73 0.94 42.78 1 42.83 1.05 42.88 1.11 42.92 1.16 42.97 1.22 43.01 1.28 43.05 1.34 43.09 1.4 43.13 1.46 43.17 1.52 43.2 1.58 43.23 1.64 43.26 1.7 43.29 1.76 43.31 1.83 43.34 1.89 43.36 1.95 43.38 2.02 43.4 2.08 43.41 2.14 43.43 2.2 43.44 2.27 43.45 2.33 43.46 2.39 43.47 2.45 43.47 2.51 43.48 2.58 43.48 2.64 43.48 2.69 43.48 2.75 43.48 2.81 43.47 2.86 43.47 2.92 43.46 2.98 "/><path class="st0" d="M40.4 12.86l-0.05 0.08 -0.05 0.08 -0.05 0.08 -0.05 0.08L40.16 13.27l-0.05 0.08 -0.06 0.08 -0.05 0.08 -0.06 0.07 -0.06 0.07 -0.06 0.07 -0.13 0.14 -0.13 0.14 -0.13 0.13 -0.13 0.13 -0.14 0.12 -0.14 0.11 -0.14 0.11 -0.14 0.1 -0.15 0.1 -0.09 0.06 -0.09 0.05 -0.09 0.05 -0.09 0.05 -0.1 0.05 -0.1 0.05L37.94 15.16l-0.1 0.05 -0.1 0.04 -0.11 0.04 -0.1 0.04 -0.11 0.04 -0.11 0.04 -0.11 0.03 -0.11 0.03 -0.11 0.03 -0.11 0.03 -0.11 0.02 -0.11 0.02 -0.11 0.02 -0.12 0.02 -0.11 0.01L36.18 15.66l-0.12 0.01 -0.11 0.01 -0.12 0 -0.12 0h-0.11l-0.12 0 -0.11 0 -0.11-0.01 -0.11-0.01 -0.11-0.01 -0.11-0.02 -0.11-0.02 -0.11-0.02 -0.11-0.03 -0.1-0.03 -0.11-0.03 -0.1-0.03 -0.1-0.03 -0.1-0.04 -0.1-0.04 -0.1-0.04 -0.09-0.04 -0.09-0.05 -0.09-0.05 -0.09-0.05 -0.09-0.05L33.37 15.01l-0.08-0.06 -0.08-0.06 -0.08-0.06 -0.07-0.06 -0.07-0.06 -0.07-0.07 -0.07-0.06 -0.06-0.07 -0.06-0.07 -0.06-0.07 -0.06-0.07 -0.05-0.07 -0.05-0.07 -0.05-0.07 -0.05-0.07 -0.04-0.08 -0.04-0.08 -0.04-0.08 -0.04-0.08 -0.04-0.08 -0.03-0.09 -0.03-0.09 -0.03-0.09 -0.03-0.09 -0.03-0.09 -0.02-0.09 -0.02-0.09 -0.02-0.1 -0.02-0.1 -0.01-0.1 -0.01-0.1 -0.01-0.1 -0.01-0.1 0-0.1v-0.1l0-0.11 0-0.11 0.01-0.11 0.01-0.11 0.01-0.11 0.02-0.11 0.02-0.11 0.02-0.11 0.03-0.11 0.03-0.11 0.03-0.11 0.03-0.11 0.04-0.11 0.04-0.11 0.04-0.11 0.04-0.1 0.05-0.1 0.05-0.1 0.05-0.1 0.06-0.1 0.06-0.1 0.06-0.1 0.06-0.1 0.06-0.1 0.07-0.09 0.07-0.09 0.07-0.09 0.07-0.09 0.07-0.09 0.08-0.08 0.08-0.08 0.08-0.08 0.08-0.08 0.08-0.08 0.08-0.08 0.08-0.07 0.08-0.07 0.09-0.07 0.08-0.07 0.09-0.06 0.09-0.06 0.09-0.06 0.09-0.06 0.12-0.07 0.12-0.07 0.12-0.07 0.13-0.07 0.13-0.06 0.13-0.06 0.13-0.06 0.14-0.05 0.14-0.05 0.14-0.05 0.15-0.04 0.14-0.04 0.15-0.04 0.15-0.03 0.15-0.03 0.15-0.02 0.11 0.17c-1.44 0.94-1.86 2.86-0.93 4.31 0.93 1.45 2.86 1.87 4.32 0.94 0.12-0.08 0.23-0.16 0.34-0.26l0.23 0.06 -0.04 0.08 -0.04 0.08L40.4 12.86z"/><path class="st1" d="M80.26 5.73c-0.21-0.08-0.43-0.12-0.65-0.13l0.01-0.22h0.03l0.19 0.01 0.19 0.01 0.18 0.02 0.17 0.02 0.08 0.01 0.08 0.01 0.08 0.02 0.08 0.02 0.07 0.02 0.07 0.02 0.07 0.02 0.07 0.02 0.07 0.02 0.07 0.02 0.07 0.03 0.06 0.03 0.06 0.03 0.06 0.03 0.06 0.03 0.06 0.03 0.05 0.04 0.05 0.04 0.05 0.04 0.05 0.04c0.49 0.4 0.62 1.1 0.3 1.65 -0.36 0.61-1.15 0.81-1.75 0.45 -0.16-0.1-0.3-0.24-0.39-0.4 -0.28-0.51-0.1-1.15 0.41-1.44 0 0 0.01-0.01 0.01-0.01 0.13-0.08 0.18-0.24 0.11-0.38C80.33 5.79 80.3 5.76 80.26 5.73z"/><path class="st1" d="M80.13 14.64v0.04h-2.22c-1.38 0-2.5-1.12-2.5-2.5V5.6h-0.61 -1.1l-0.26-0.23h1.36 0.61V3.67c0-0.42-0.3-0.79-0.72-0.86V2.8h0.81c1.49 0 2.76 1.1 2.97 2.57h0.76l0.21 0 0.17 0.01 -0.01 0.22c-0.09 0-0.19 0-0.28 0.01h-0.09 -0.74c0 0.07 0.01 0.13 0.01 0.2v6.87C78.49 13.63 79.18 14.46 80.13 14.64z"/><path class="st1" d="M73.4 13.08c-0.72 0.48-1.57 0.72-2.44 0.67l0.06-0.02 0.06-0.02 0.06-0.02 0.06-0.03 0.06-0.03 0.06-0.03 0.05-0.03 0.05-0.03 0.05-0.03 0.02-0.02 0.02-0.02 0.02-0.02 0.02-0.02 0.02-0.02 0.02-0.02 0.02-0.02 0.02-0.02 0.02-0.02 0.02-0.02 0.02-0.02 0.02-0.02 0.02-0.02 0.01-0.01 0.01-0.01 0.01-0.01 0.01-0.01 0.01-0.01 0.01-0.01 0.01-0.01 0.01-0.01 0.01-0.01 0.01-0.01 0.01-0.01 0.01-0.01 0.01-0.01 0-0.01 0-0.01 0-0.01 0-0.01 0-0.01 0-0.01 0-0.01 0-0.01 0-0.01 0-0.01 0-0.01 0-0.01v-0.01l0-0.01v-0.01 -0.01 -0.01l0-0.01V12.95l0-0.01 0-0.01 0-0.01 0-0.01 0-0.01 0-0.01 0-0.01 0-0.01 0-0.01 0-0.01 -0.01-0.01 -0.01-0.01 0-0.01 -0.01-0.01 -0.01-0.01 -0.01-0.01 -0.01-0.01 -0.01-0.01 -0.01-0.01 -0.01-0.01 -0.01-0.01 -0.01-0.01 -0.01-0.01 -0.01-0.01 -0.01-0.01 -0.01-0.01 -0.01-0.01 -0.01-0.01 -0.01-0.01 -0.01-0.01 -0.01-0.01 -0.01-0.01 -0.02-0.02c-0.12-0.09-0.22-0.2-0.29-0.33 -0.33-0.55-0.15-1.25 0.4-1.59 0 0 0.01 0 0.01-0.01 0 0 0 0 0 0 0.63-0.37 1.43-0.23 1.89 0.34C74.13 11.65 74.03 12.58 73.4 13.08z"/><path class="st1" d="M73.79 9.21v0.29h-3.19V9.26 6.63c0-0.48-0.39-0.88-0.88-0.88V5.6h0.45C72.18 5.6 73.79 7.22 73.79 9.21z"/><path class="st1" d="M68.42 9.26h2.19v0.23h-2.19v2.36c0 0.92 0.66 1.71 1.56 1.87v0.03h-1.14c-1.99 0-3.61-1.62-3.61-3.61V9.21c0-1.99 1.62-3.61 3.61-3.61h0.89v0.16h-0.44c-0.48 0-0.88 0.39-0.88 0.88V9.26z"/><path class="st1" d="M70.33 4.39l1.02-1.66h0.27l-1.21 1.97h-2.47L66.47 2.82c-0.02-0.03-0.05-0.06-0.07-0.09h2.8L70.33 4.39z"/><path class="st1" d="M58.6 6.72c0.56-0.7 1.42-1.12 2.34-1.12 1.66 0 3.01 1.35 3.01 3.01v2.14c0 1.66-1.35 3.01-3.01 3.01h-0.99c0.55-0.3 0.9-0.87 0.9-1.5v-0.17V7.31c0-0.6-0.49-1.09-1.09-1.09 -0.27 0-0.54 0.1-0.74 0.29 -0.1 0.1-0.2 0.2-0.29 0.31L58.6 6.72z"/><path class="st1" d="M58.26 7.23c0.1-0.18 0.21-0.36 0.34-0.51l0.13 0.1c-0.15 0.18-0.27 0.38-0.37 0.6 0.2 0.41 0.31 0.87 0.31 1.33v7.49c0 1.66-1.35 3-3.01 3h-0.8v-0.02c0.41-0.08 0.71-0.44 0.71-0.86V6.62c0-0.42-0.3-0.78-0.71-0.86V5.74h0.8C56.73 5.74 57.72 6.31 58.26 7.23z"/><path class="st1" d="M52.64 14.01c-0.21-0.08-0.43-0.12-0.65-0.13l0.01-0.22h0.03l0.19 0.01 0.19 0.01 0.18 0.02 0.17 0.02 0.08 0.01 0.08 0.01 0.08 0.02 0.08 0.02 0.07 0.02 0.07 0.02 0.07 0.02 0.07 0.02 0.07 0.02 0.07 0.02 0.07 0.03 0.06 0.03 0.06 0.03 0.06 0.03 0.06 0.03 0.06 0.03 0.05 0.04 0.05 0.04 0.05 0.04 0.05 0.04c0.49 0.4 0.62 1.1 0.3 1.65 -0.36 0.61-1.15 0.81-1.76 0.45 -0.16-0.1-0.3-0.24-0.39-0.4 -0.28-0.51-0.1-1.15 0.41-1.44 0 0 0.01-0.01 0.01-0.01 0.13-0.08 0.18-0.24 0.11-0.38C52.72 14.07 52.68 14.03 52.64 14.01z"/><path class="st1" d="M51.61 13.65l0.21 0 0.17 0.01 -0.01 0.22c-0.1 0-0.19 0-0.28 0.01h-0.09 -5.44l4.48-7.91H48.37h-0.09c-0.09-0.01-0.19-0.01-0.28-0.01l-0.01-0.22 0.17-0.01 0.21 0h5.67l-4.48 7.91H51.61z"/><path class="st1" d="M47.99 5.96c-0.22 0.01-0.44 0.06-0.65 0.13 -0.13 0.08-0.17 0.26-0.09 0.39 0.02 0.04 0.06 0.07 0.1 0.09 0 0 0.01 0.01 0.01 0.01 0.16 0.09 0.3 0.22 0.39 0.38 0.3 0.51 0.13 1.16-0.37 1.46 -0.55 0.32-1.25 0.2-1.65-0.3 -0.44-0.55-0.36-1.36 0.19-1.8l0.05-0.04 0.05-0.04 0.05-0.04 0.05-0.04 0.06-0.03 0.06-0.03 0.06-0.03 0.06-0.03 0.06-0.03 0.06-0.03 0.07-0.02 0.07-0.02 0.07-0.02 0.07-0.02 0.07-0.02 0.08-0.02 0.08-0.02 0.08-0.02 0.08-0.01 0.08-0.01 0.17-0.02 0.18-0.02 0.19-0.01 0.19-0.01h0.03L47.99 5.96z"/><path class="st1" d="M27.53 6.79c0.56-0.68 1.41-1.09 2.32-1.09 1.66 0 3.01 1.35 3.01 3.01v4.44h-2.8c-0.19-0.28-0.3-0.62-0.3-0.96V7.41c0-0.6-0.49-1.09-1.09-1.09 -0.27 0-0.54 0.1-0.74 0.29 -0.1 0.09-0.19 0.18-0.27 0.28L27.53 6.79z"/><path class="st1" d="M23.12 6.07c1.45-0.8 3.28-0.27 4.08 1.18 0.09-0.17 0.2-0.32 0.32-0.46l0.13 0.1c-0.14 0.17-0.26 0.35-0.36 0.55 0.18 0.4 0.28 0.83 0.28 1.27v4.55c0 0.31 0.22 0.57 0.53 0.62v0.01h-1.92c-0.9 0-1.63-0.69-1.7-1.57 0-0.04-0.01-0.09-0.01-0.13V7.41c0-0.6-0.49-1.09-1.09-1.09 -0.2 0-0.4 0.06-0.57 0.16l-0.11-0.14C22.84 6.24 22.98 6.15 23.12 6.07z"/><path class="st1" d="M22.84 13.88h-1.92c-0.94 0-1.7-0.76-1.7-1.7V8.01c0-1.04-0.53-2-1.41-2.55h2c1 0 1.91 0.6 2.3 1.52 0.17-0.24 0.37-0.46 0.6-0.64l0.11 0.14c-0.06 0.04-0.11 0.08-0.16 0.12 -0.18 0.17-0.34 0.36-0.48 0.57 0.08 0.26 0.13 0.52 0.13 0.79v5.29c0 0.31 0.22 0.57 0.53 0.62V13.88z"/><path class="st1" d="M14.13 9.1V6.57c0-0.42-0.29-0.77-0.7-0.86V5.7h0.78c1.66 0 3 1.35 3 3.01v3.68c0 0.63 0.35 1.21 0.9 1.5H17.13c-1.66 0-3-1.35-3-3V9.28L13.45 9.41l-0.03-0.17L14.13 9.1z"/><path class="st1" d="M13.24 9.45l-0.1 0.02 -0.1 0.02 -0.09 0.03 -0.09 0.03 -0.08 0.03 -0.08 0.04 -0.04 0.02 -0.04 0.02L12.58 9.68l-0.04 0.02 -0.04 0.02 -0.04 0.02L12.43 9.76 12.4 9.78l-0.03 0.02 -0.03 0.02 -0.03 0.02 -0.03 0.02 -0.03 0.02 -0.03 0.02 -0.03 0.03 -0.03 0.02 -0.03 0.03 -0.03 0.03 -0.02 0.03 -0.02 0.03 -0.02 0.03 -0.02 0.03 -0.02 0.03 -0.02 0.03 -0.02 0.03 -0.02 0.03 -0.02 0.03 -0.02 0.03 -0.02 0.03 -0.02 0.04 -0.01 0.03 -0.01 0.04 -0.01 0.04 -0.01 0.04 -0.01 0.04 -0.01 0.04 -0.01 0.04 -0.01 0.04 -0.01 0.04 -0.01 0.04 -0.01 0.04 -0.01 0.04 0 0.04 -0.01 0.04 0 0.05 0 0.04 0 0.05v0.05 1.26c0 0.63 0.51 1.13 1.13 1.13 0.05 0 0.09 0 0.14-0.01 0.21-0.03 0.41-0.09 0.6-0.18l-0.05 0.04 -0.05 0.04 -0.05 0.04 -0.05 0.04 -0.05 0.03 -0.05 0.03 -0.05 0.03 -0.05 0.03 -0.06 0.03 -0.06 0.03 -0.06 0.03 -0.06 0.02 -0.06 0.02 -0.06 0.02 -0.06 0.02 -0.06 0.02 -0.06 0.02 -0.07 0.02 -0.07 0.02 -0.07 0.02 -0.13 0.03 -0.14 0.02 -0.14 0.02 -0.14 0.02 -0.14 0.01 -0.14 0.01 -0.14 0h-0.14l-0.14-0.01 -0.14-0.01 -0.14-0.01 -0.13-0.01 -0.13-0.02 -0.13-0.02 -0.13-0.02 -0.13-0.03 -0.12-0.03 -0.12-0.03 -0.06-0.02L9.91 13.74l-0.05-0.02 -0.05-0.02L9.75 13.67 9.7 13.65l-0.05-0.02 -0.05-0.02L9.52 13.57l-0.07-0.04 -0.07-0.04 -0.07-0.04L9.24 13.39l-0.06-0.05L9.12 13.3l-0.06-0.05L9.01 13.2l-0.03-0.02L8.96 13.15l-0.02-0.02 -0.02-0.02 -0.02-0.03L8.86 13.05l-0.02-0.03L8.82 12.99l-0.02-0.03 -0.02-0.03L8.76 12.91l-0.02-0.03 -0.02-0.03L8.71 12.83l-0.02-0.03 -0.02-0.03 -0.01-0.03L8.65 12.72l-0.01-0.03 -0.01-0.03 -0.01-0.03L8.59 12.61l-0.01-0.03L8.57 12.56l-0.01-0.03 -0.01-0.03 -0.01-0.03 -0.01-0.03 -0.01-0.03 -0.01-0.03 -0.01-0.03 -0.01-0.03L8.5 12.27l-0.01-0.06 -0.01-0.06 -0.01-0.06 0-0.06 0-0.06v-0.06 -0.07l0-0.07 0.01-0.06 0.01-0.06 0.01-0.06 0.01-0.06 0.01-0.06 0.01-0.06L8.54 11.38l0.02-0.05L8.58 11.27l0.02-0.05 0.02-0.05 0.02-0.05 0.02-0.05L8.7 11.01l0.03-0.05 0.03-0.05 0.03-0.05 0.03-0.05L8.86 10.78l0.04-0.04 0.04-0.04 0.04-0.04 0.04-0.04 0.04-0.04 0.04-0.04L9.14 10.5l0.04-0.04 0.05-0.04 0.05-0.04 0.05-0.03 0.05-0.03 0.05-0.03 0.05-0.03 0.05-0.03 0.05-0.03 0.05-0.03 0.1-0.06 0.11-0.05 0.11-0.05 0.11-0.05 0.11-0.04 0.11-0.04 0.11-0.04 0.11-0.04 0.11-0.03 0.11-0.03 0.11-0.03 0.22-0.05 2.33-0.44 0.03 0.17 -0.11 0.02L13.24 9.45z"/><path class="st1" d="M9.84 6.37c0.72-0.48 1.57-0.71 2.43-0.67h0.01L12.22 5.72l-0.06 0.02 -0.06 0.02 -0.06 0.03L11.99 5.82 11.93 5.85l-0.05 0.03 -0.05 0.03 -0.05 0.03 -0.02 0.02 -0.02 0.02 -0.02 0.02 -0.02 0.02 -0.02 0.02 -0.02 0.02 -0.02 0.02 -0.02 0.02L11.57 6.1l-0.02 0.02 -0.02 0.02 -0.02 0.02L11.5 6.18l-0.01 0.01 -0.01 0.01 -0.01 0.01 -0.01 0.01 -0.01 0.01L11.46 6.24 11.45 6.25l-0.01 0.01 -0.01 0.01 -0.01 0.01L11.43 6.29l-0.01 0.01 0 0.01 -0.01 0.01 0 0.01 0 0.01 0 0.01 0 0.01L11.4 6.37l0 0.01 0 0.01 0 0.01 0 0.01 0 0.01 0 0.01v0.01 0.01l0 0.01v0.01l0 0.01v0.01l0 0.01v0.01l0 0.01 0 0.01 0 0.01 0 0.01 0 0.01 0 0.01 0 0.01 0 0.01 0.01 0.01 0 0.01 0.01 0.01 0.01 0.01 0.01 0.01 0.01 0.01 0.01 0.01 0.01 0.01 0.01 0.01 0.01 0.01 0.01 0.01 0.01 0.01 0.01 0.01 0.01 0.01 0.01 0.01 0.01 0.01 0.01 0.01 0.01 0.01 0.01 0.01 0.01 0.01 0.01 0.01 0.01 0.01 0.01 0.01 0.02 0.02c0.12 0.09 0.22 0.2 0.29 0.33 0.33 0.55 0.15 1.25-0.4 1.59 0 0-0.01 0-0.01 0.01 0 0 0 0 0 0 -0.63 0.37-1.43 0.23-1.89-0.34C9.11 7.8 9.21 6.88 9.84 6.37z"/><path class="st1" d="M8.26 14.74v0.04H6.04c-1.38 0-2.5-1.12-2.5-2.51V5.7H2.93 2.83C2.74 5.69 2.65 5.69 2.55 5.69L2.55 5.47l0.17-0.01 0.21 0h0.61V3.77c0-0.42-0.31-0.79-0.72-0.86V2.89H3.62c1.49 0 2.76 1.1 2.97 2.57h1.98L8.32 5.7H6.62C6.63 5.76 6.63 5.83 6.63 5.9v6.87C6.63 13.73 7.31 14.56 8.26 14.74z"/><path class="st1" d="M1.9 5.83c-0.13 0.08-0.17 0.26-0.09 0.39 0.03 0.04 0.06 0.08 0.11 0.1v0C2.08 6.41 2.21 6.54 2.31 6.7c0.3 0.51 0.13 1.16-0.37 1.46C1.39 8.48 0.69 8.35 0.29 7.86c-0.45-0.55-0.36-1.36 0.19-1.8l0.05-0.04 0.05-0.04 0.05-0.04 0.05-0.03L0.74 5.87l0.06-0.03 0.06-0.03 0.06-0.03 0.06-0.03 0.07-0.03 0.07-0.03 0.07-0.02 0.07-0.02L1.32 5.64 1.4 5.62l0.07-0.02 0.08-0.02L1.63 5.57l0.08-0.01 0.08-0.01L1.96 5.51l0.18-0.02 0.19-0.01L2.52 5.47h0.03l0.01 0.22C2.33 5.7 2.11 5.75 1.9 5.83z"/><path class="st1" d="M33.38 13.88h-1.92c-0.9 0-1.63-0.69-1.7-1.57 0-0.04-0.01-0.09-0.01-0.13V7.41c0-0.6-0.49-1.09-1.09-1.09l-0.27-0.25c1.45-0.8 3.28-0.27 4.08 1.18l0.1 0.19c0.18 0.4 0.28 0.83 0.28 1.27v4.55c0 0.31 0.22 0.57 0.53 0.62V13.88z"/></svg>